<?xml version="1.0" encoding="UTF-8" standalone="no"?>
<!-- Created with Inkscape (http://www.inkscape.org/) -->

<svg
   xmlns:dc="http://purl.org/dc/elements/1.1/"
   xmlns:cc="http://creativecommons.org/ns#"
   xmlns:rdf="http://www.w3.org/1999/02/22-rdf-syntax-ns#"
   xmlns:svg="http://www.w3.org/2000/svg"
   xmlns="http://www.w3.org/2000/svg"
   xmlns:inkscape="http://www.inkscape.org/namespaces/inkscape"
   version="1.1"
   width="744.09998"
   height="1052.3625"
   id="svg2"
   xml:space="preserve"><metadata
     id="metadata8"><rdf:RDF><cc:Work
         rdf:about=""><dc:format>image/svg+xml</dc:format><dc:type
           rdf:resource="http://purl.org/dc/dcmitype/StillImage" /></cc:Work></rdf:RDF></metadata><defs
     id="defs6"><clipPath
       id="clipPath16"><path
         d="m 0,841.89 595.28,0 L 595.28,0 0,0 0,841.89 z"
         inkscape:connector-curvature="0"
         id="path18" /></clipPath></defs><g
     transform="matrix(1.25,0,0,-1.25,0,1052.3625)"
     id="g10"><g
       id="g12"><g
         clip-path="url(#clipPath16)"
         id="g14"><g
           transform="translate(391.3076,461.8623)"
           id="g20"><path
             d="m 0,0 167.79,41.659 -14.869,-8.596 -1.87,-14.437 -8.06,10.697 -6.881,-2.219 -3.897,-14.014 -6.024,10.268 -8.689,-3.336 -4.104,-10.014 -7.718,5.389 -7.625,-3.276 -3.287,-10.016 -6.975,4.811 -8.938,-3.425 -5.001,-9.75 -5.993,5.939 -19.002,-5.856 -3.761,-8.541 -4.93,5.193 -6.303,-1.489 -1.705,-6.514 -3.637,3.714 -4.918,-0.77 -2.089,-6.111 -5.114,4.055 -8.112,-2.609 0.93,-5.403 -5.848,3.812 -14.942,-8.349 66.813,16.656 3.009,6.677 6.498,-4.155 14.001,3.699 5.83,10.563 7.605,-7.586 7.025,0.898 3.565,13.369 10.118,-10.316 6.478,1.821 1.569,11.91 10.045,-9.248 7.625,2.456 1.096,11.754 6.777,-8.403 8.764,2.283 1.384,15.102 11.915,-16.785 c 0,0 -78.636,-21.279 -152.3,-52.077 -58.516,-24.463 -168.244,-80.408 -270.729,-95.163 -26.545,-3.824 -49.185,-5.589 -78.83,5.838 0,0 -41.147,18.217 -12.317,58.455 24.272,33.872 57.028,44.737 79.979,41.746 11.851,-1.55 18.837,-4.64 22.856,-11.294 4.866,-8.05 -4.392,-31.951 -35.05,-31.947 0,0 14.971,6.656 18.692,14.08 3.493,6.928 -1.219,12.772 -19.106,9.125 -41.032,-8.35 -69.665,-55.025 -7.212,-51.728 62.443,3.307 135.187,40.33 135.187,40.33 L -33.24,-4.946 c 0,0 -12.969,124.465 4.577,64.977 0,0 6.871,99.921 18.144,-47.886 0,0 4.382,7.312 12.825,7.384 C 11.14,19.61 16.049,4.087 0,0"
             inkscape:connector-curvature="0"
             id="path22"
             style="fill:#e9e8e9;fill-opacity:1;fill-rule:evenodd;stroke:none" /></g><g
           transform="translate(252.5562,404.8057)"
           id="g24"><path
             d="m 0,0 24.603,140.921 c 0,0 -90.219,-100.725 -26.661,-52.012 0,0 -34.614,-30.703 -9.05,-22.459 25.574,8.243 -3.11,-17.29 -3.11,-17.29 0,0 -17.01,-17.97 6.095,-12.147 21.059,5.3 -9.114,-12.167 -9.114,-12.167 0,0 -16.274,-10.131 3.008,-9.346 19.652,0.806 2.541,-7.863 2.541,-7.863 0,0 -4.949,-2.729 -7.811,-5.064 C -37.251,-11.898 0,0 0,0"
             inkscape:connector-curvature="0"
             id="path26"
             style="fill:#e9e8e9;fill-opacity:1;fill-rule:evenodd;stroke:none" /></g><g
           transform="translate(221.1943,459.3433)"
           id="g28"><path
             d="m 0,0 c 0,0 26.928,12.478 9.444,-4.019 -17.472,-16.491 3.876,-20.46 3.876,-20.46 0,0 1.312,-0.661 -10.386,-9.857 -12.109,-9.539 -1.765,-13.061 3.308,-11.966 5.072,1.09 -14.633,-14.425 0.278,-20.357 4.423,-1.756 -14.445,-8.091 -14.445,-8.091 0,0 -7.11,-8.265 1.528,5.375 8.63,13.633 -3.501,9.179 -3.501,9.179 0,0 -22.961,-8.534 -1.499,14.721 15.707,17.003 1.053,6.85 1.053,6.85 0,0 -14.269,-6.231 5.095,19.561 19.374,25.786 1.261,11.263 1.261,11.263 0,0 -9.993,-2.681 10.539,24.564 C 8.722,19.648 0,0 0,0"
             inkscape:connector-curvature="0"
             id="path30"
             style="fill:#e9e8e9;fill-opacity:1;fill-rule:evenodd;stroke:none" /></g><g
           transform="translate(548.2285,514.1299)"
           id="g32"><path
             d="m 0,0 c 2.241,0.726 4.805,-1.005 5.725,-3.854 0.919,-2.854 -0.156,-5.755 -2.388,-6.477 -2.242,-0.72 -4.805,1.002 -5.725,3.86 C -3.308,-3.62 -2.233,-0.718 0,0"
             inkscape:connector-curvature="0"
             id="path34"
             style="fill:#e9e8e9;fill-opacity:1;fill-rule:evenodd;stroke:none" /></g><g
           transform="translate(390.3164,474.1177)"
           id="g36"><path
             d="M 0,0 C 1.839,0.591 3.751,-0.245 4.278,-1.878 4.796,-3.502 3.751,-5.306 1.902,-5.897 0.073,-6.487 -1.838,-5.64 -2.355,-4.012 -2.883,-2.384 -1.817,-0.591 0,0"
             inkscape:connector-curvature="0"
             id="path38"
             style="fill:#ffffff;fill-opacity:1;fill-rule:evenodd;stroke:none" /></g><g
           transform="translate(213.8384,317.5518)"
           id="g40"><path
             d="M 0,0 C -4.219,5.838 -8.475,8.749 -12.685,8.577 -19.456,8.34 -24.467,0.368 -24.517,0.286 l -4.507,2.775 c 0.261,0.422 6.511,10.441 16.119,10.801 6.082,0.305 11.868,-3.394 17.192,-10.76 L 0,0 z"
             inkscape:connector-curvature="0"
             id="path42"
             style="fill:#e9e8e9;fill-opacity:1;fill-rule:nonzero;stroke:none" /></g><g
           transform="translate(201.1431,307.958)"
           id="g44"><path
             d="M 0,0 -2.236,33.599 3.043,33.949 5.281,0.351 0,0 z"
             inkscape:connector-curvature="0"
             id="path46"
             style="fill:#e9e8e9;fill-opacity:1;fill-rule:nonzero;stroke:none" /></g><g
           transform="translate(355.9443,367.7666)"
           id="g48"><path
             d="m 0,0 c -0.031,0.501 -0.75,12.354 6.912,18.242 4.851,3.731 11.708,4.124 20.377,1.184 L 25.584,14.414 C 18.708,16.76 13.494,16.637 10.137,14.048 4.784,9.931 5.273,0.454 5.279,0.361 L 0,0 z"
             inkscape:connector-curvature="0"
             id="path50"
             style="fill:#e9e8e9;fill-opacity:1;fill-rule:nonzero;stroke:none" /></g><g
           transform="translate(371.3398,370.7422)"
           id="g52"><path
             d="m 0,0 -20.107,27.032 4.246,3.161 L 4.248,3.162 0,0 z"
             inkscape:connector-curvature="0"
             id="path54"
             style="fill:#e9e8e9;fill-opacity:1;fill-rule:nonzero;stroke:none" /></g></g></g></g></svg>